<?xml version="1.0" encoding="UTF-8"?><svg xmlns="http://www.w3.org/2000/svg" xmlns:xlink="http://www.w3.org/1999/xlink" width="375" zoomAndPan="magnify" viewBox="0 0 375 374.999991" height="374.999991" preserveAspectRatio="xMidYMid meet" version="1.0"><defs><clipPath id="clip-0"><path d="M 267 220 L 277.636719 220 L 277.636719 234 L 267 234 Z M 267 220 " clip-rule="nonzero"/></clipPath><clipPath id="clip-1"><path d="M 250 320 L 261 320 L 261 328.976562 L 250 328.976562 Z M 250 320 " clip-rule="nonzero"/></clipPath><clipPath id="clip-2"><path d="M 225 322 L 244 322 L 244 328.976562 L 225 328.976562 Z M 225 322 " clip-rule="nonzero"/></clipPath><clipPath id="clip-3"><path d="M 201 160 L 211.59375 160 L 211.59375 175 L 201 175 Z M 201 160 " clip-rule="nonzero"/></clipPath><clipPath id="clip-4"><path d="M 154 125.660156 L 178 125.660156 L 178 149 L 154 149 Z M 154 125.660156 " clip-rule="nonzero"/></clipPath><clipPath id="clip-5"><path d="M 129 321 L 149 321 L 149 328.910156 L 129 328.910156 Z M 129 321 " clip-rule="nonzero"/></clipPath><clipPath id="clip-6"><path d="M 125.34375 154 L 153 154 L 153 229 L 125.34375 229 Z M 125.34375 154 " clip-rule="nonzero"/></clipPath></defs><path fill="rgb(74.119568%, 82.348633%, 71.369934%)" d="M 194.003906 58.5625 C 128.765625 58.5625 75.878906 111.445312 75.878906 176.6875 C 75.878906 241.925781 128.765625 294.8125 194.003906 294.8125 C 259.242188 294.8125 312.128906 241.925781 312.128906 176.6875 C 312.128906 111.445312 259.242188 58.5625 194.003906 58.5625 Z M 194.003906 58.5625 " fill-opacity="1" fill-rule="nonzero"/><path fill="rgb(88.238525%, 82.348633%, 80.778503%)" d="M 256.144531 149.050781 C 256.851562 152.363281 258.878906 158.675781 260.039062 161.945312 C 261.539062 166.164062 259.535156 167.402344 255.613281 167.71875 C 251.632812 168.035156 247.59375 168.101562 243.546875 168.105469 C 241.027344 168.105469 237.890625 168.890625 236.199219 166.324219 C 234.464844 163.699219 236.070312 158.691406 236.273438 155.882812 C 236.570312 151.808594 237.851562 146.535156 240.207031 145.664062 C 241.648438 145.132812 242.472656 145.078125 243.957031 145.007812 C 245.675781 144.921875 247.390625 145.050781 249.121094 145.007812 C 251.820312 144.941406 255.433594 145.714844 256.144531 149.050781 " fill-opacity="1" fill-rule="nonzero"/><path fill="rgb(96.469116%, 58.428955%, 45.878601%)" d="M 231.859375 173.476562 C 231.859375 173.476562 226.503906 174.445312 225.03125 194.222656 L 224.082031 204.882812 C 224.082031 204.882812 227.566406 210.800781 231.144531 206.511719 C 231.246094 206.390625 231.34375 206.261719 231.445312 206.125 C 235.125 201.117188 242.253906 173.1875 231.859375 173.476562 " fill-opacity="1" fill-rule="nonzero"/><path fill="rgb(96.469116%, 58.428955%, 45.878601%)" d="M 224.203125 203.53125 C 216.910156 216.25 221.035156 212.734375 210.058594 221.191406 C 210.058594 221.191406 209.949219 223.792969 212.199219 223.3125 C 222.808594 221.039062 229.523438 214.832031 231.675781 207.378906 C 232.285156 205.261719 224.203125 203.53125 224.203125 203.53125 " fill-opacity="1" fill-rule="nonzero"/><path fill="rgb(96.469116%, 58.428955%, 45.878601%)" d="M 210.058594 221.191406 L 206.335938 221.425781 L 202.460938 222.015625 C 202.488281 223.464844 205.171875 223.316406 205.171875 223.316406 C 203.011719 225.488281 200.488281 227.777344 200.488281 227.777344 C 199.644531 228.515625 200.550781 228.960938 200.550781 228.960938 C 202.105469 228.539062 205.082031 226.347656 205.082031 226.347656 C 203.582031 227.8125 200.75 229.890625 200.75 229.890625 C 200.167969 230.617188 201.101562 230.863281 201.101562 230.863281 C 203.324219 230.867188 205.972656 227.644531 205.972656 227.644531 C 205.011719 228.894531 202.308594 231.027344 202.308594 231.027344 C 202.175781 231.683594 202.554688 231.65625 202.554688 231.65625 C 204.3125 231.925781 206.855469 228.820312 206.855469 228.820312 L 205.875 229.957031 C 204.390625 231.398438 205.71875 231.585938 205.71875 231.585938 L 206.613281 230.953125 C 209.304688 228.976562 210.375 226.402344 210.375 226.402344 L 212.199219 223.3125 L 210.058594 221.191406 " fill-opacity="1" fill-rule="nonzero"/><path fill="rgb(31.369019%, 74.119568%, 73.728943%)" d="M 238.230469 163.011719 C 238.230469 163.011719 241.167969 171.09375 238.230469 182.03125 L 235.722656 192.28125 C 235.722656 192.28125 230.011719 195.882812 224.082031 189.851562 L 227.472656 172.347656 C 227.472656 172.347656 231.535156 164.136719 238.230469 163.011719 " fill-opacity="1" fill-rule="nonzero"/><path fill="rgb(96.469116%, 58.428955%, 45.878601%)" d="M 240.023438 265.203125 L 230.46875 262.878906 C 230.46875 262.878906 237.445312 313.902344 238.0625 315.980469 C 238.0625 315.980469 243.113281 316.175781 242.988281 314.96875 C 242.683594 312.0625 245.125 291.382812 245.074219 286.796875 C 244.996094 279.429688 244.550781 274.789062 240.023438 265.203125 " fill-opacity="1" fill-rule="nonzero"/><path fill="rgb(96.469116%, 58.428955%, 45.878601%)" d="M 258.929688 268.128906 L 248.863281 271.023438 C 248.863281 271.023438 253.925781 316.890625 254.363281 319.015625 C 254.363281 319.015625 257.558594 320.136719 257.535156 318.925781 C 257.484375 316.003906 262.191406 294.542969 262.476562 289.964844 C 262.964844 282.09375 263.203125 276.929688 258.929688 268.128906 " fill-opacity="1" fill-rule="nonzero"/><path fill="rgb(18.429565%, 28.62854%, 49.798584%)" d="M 229.464844 211.890625 L 229.578125 211.882812 C 229.605469 211.570312 229.636719 211.253906 229.675781 210.929688 C 229.914062 208.859375 235.074219 195.363281 235.074219 195.363281 C 253.53125 196.21875 256.726562 193.847656 256.726562 193.847656 C 269.558594 207.5625 266.972656 221.921875 266.972656 221.921875 C 267.078125 222.667969 267.109375 223.507812 267.738281 230.789062 L 270.191406 276.394531 C 254.375 282.070312 225.679688 276.890625 225.679688 276.890625 C 222.65625 251.578125 229.464844 211.890625 229.464844 211.890625 " fill-opacity="1" fill-rule="nonzero"/><path fill="rgb(96.469116%, 58.428955%, 45.878601%)" d="M 240.992188 162.546875 C 241.492188 160.945312 241.933594 160.523438 240.683594 157.519531 L 251.8125 150.230469 C 251.8125 150.230469 249.824219 162.308594 252.023438 163.347656 C 252.023438 163.347656 244.320312 165.578125 240.992188 162.546875 " fill-opacity="1" fill-rule="nonzero"/><path fill="rgb(88.62915%, 45.489502%, 38.42926%)" d="M 241.425781 161.128906 C 241.667969 159.476562 240.867188 158.609375 240.683594 157.519531 L 251.8125 150.230469 C 251.8125 150.230469 251.054688 155.195312 250.972656 159.746094 C 246.957031 161.015625 245.136719 161.386719 241.425781 161.128906 " fill-opacity="1" fill-rule="nonzero"/><path fill="rgb(96.469116%, 58.428955%, 45.878601%)" d="M 235.597656 167.128906 C 235.089844 170.398438 234.574219 174.382812 235.410156 179.949219 C 236.460938 186.914062 235.453125 193.324219 236.976562 195.503906 C 240.316406 200.277344 254.121094 195.597656 254.121094 195.597656 L 262.210938 175.132812 C 262.210938 175.132812 265.738281 166.355469 259.582031 163.910156 L 239.933594 162.25 C 239.933594 162.25 237.0625 163.269531 235.597656 167.128906 " fill-opacity="1" fill-rule="nonzero"/><path fill="rgb(90.979004%, 52.938843%, 40.388489%)" d="M 240.21875 193.773438 C 239.214844 193.625 235.074219 195.363281 235.074219 195.363281 C 235.074219 195.363281 229.894531 209.480469 229.671875 211.535156 C 229.449219 213.585938 246.84375 223.617188 266.269531 217.5625 C 266.269531 217.5625 257.273438 198.535156 256.726562 193.847656 C 256.175781 189.164062 240.21875 193.773438 240.21875 193.773438 " fill-opacity="1" fill-rule="nonzero"/><path fill="rgb(90.979004%, 52.938843%, 40.388489%)" d="M 233.160156 169.214844 C 233.160156 169.214844 230.019531 176.886719 229.179688 179.339844 C 228.433594 181.527344 232.890625 185.726562 235.792969 186.714844 C 237.378906 187.257812 235.605469 169.734375 233.160156 169.214844 " fill-opacity="1" fill-rule="nonzero"/><path fill="rgb(96.469116%, 58.428955%, 45.878601%)" d="M 240.378906 159.132812 C 241.550781 160.007812 245.121094 159.328125 249.125 155.785156 C 252.261719 153.011719 252.847656 148.230469 252.710938 141.351562 C 252.671875 139.511719 251.609375 138.023438 250.363281 136.941406 C 248.921875 135.695312 248.214844 135.199219 246.273438 134.996094 C 242.882812 134.648438 239.34375 135.320312 237.457031 138.878906 C 237.457031 138.878906 231.289062 149.203125 240.378906 159.132812 " fill-opacity="1" fill-rule="nonzero"/><path fill="rgb(92.158508%, 47.44873%, 38.819885%)" d="M 242.402344 150.105469 L 239.933594 150.105469 C 239.933594 150.105469 240.207031 151.351562 241.167969 151.328125 C 241.167969 151.328125 242.402344 151.328125 242.402344 150.105469 " fill-opacity="1" fill-rule="nonzero"/><path fill="rgb(45.878601%, 14.509583%, 15.689087%)" d="M 244.042969 152.855469 C 244.042969 152.855469 241.398438 151.730469 238.402344 152.78125 C 238.402344 152.78125 240.878906 156.691406 244.042969 152.855469 " fill-opacity="1" fill-rule="nonzero"/><path fill="rgb(100%, 100%, 100%)" d="M 238.800781 152.652344 C 240.972656 152.019531 242.898438 152.476562 243.675781 152.726562 C 243.675781 152.726562 241.628906 154.507812 238.800781 152.652344 " fill-opacity="1" fill-rule="nonzero"/><path fill="rgb(89.019775%, 78.039551%, 70.979309%)" d="M 244.113281 145.292969 C 244.113281 145.292969 246.296875 145.28125 246.515625 146.558594 C 246.515625 146.558594 246.273438 146.648438 245.429688 146.246094 C 244.761719 146.039062 243.683594 146.050781 242.96875 146.273438 C 242.96875 146.273438 242.230469 145.28125 244.113281 145.292969 " fill-opacity="1" fill-rule="nonzero"/><path fill="rgb(89.019775%, 78.039551%, 70.979309%)" d="M 238.40625 145.292969 C 238.40625 145.292969 236.222656 145.28125 236.003906 146.558594 C 236.003906 146.558594 236.246094 146.648438 237.089844 146.246094 C 237.753906 146.039062 238.835938 146.050781 239.550781 146.273438 C 239.550781 146.273438 240.289062 145.28125 238.40625 145.292969 " fill-opacity="1" fill-rule="nonzero"/><path fill="rgb(92.158508%, 49.409485%, 38.819885%)" d="M 243.714844 149.121094 C 243.714844 149.609375 244.480469 150.007812 245.425781 150.007812 C 246.367188 150.007812 247.136719 149.609375 247.136719 149.121094 C 247.136719 148.632812 246.367188 148.234375 245.425781 148.234375 C 244.480469 148.234375 243.714844 148.632812 243.714844 149.121094 " fill-opacity="1" fill-rule="nonzero"/><path fill="rgb(92.158508%, 49.409485%, 38.819885%)" d="M 235.722656 149.121094 C 235.722656 149.609375 236.488281 150.007812 237.433594 150.007812 C 238.378906 150.007812 239.144531 149.609375 239.144531 149.121094 C 239.144531 148.632812 238.378906 148.234375 237.433594 148.234375 C 236.488281 148.234375 235.722656 148.632812 235.722656 149.121094 " fill-opacity="1" fill-rule="nonzero"/><path fill="rgb(92.158508%, 49.409485%, 38.819885%)" d="M 237.707031 142.980469 C 237.707031 142.980469 237.820312 142.996094 238.011719 143.019531 C 238.203125 143.039062 238.480469 143.074219 238.8125 143.097656 C 239.472656 143.152344 240.355469 143.1875 241.238281 143.1875 C 242.121094 143.1875 243.003906 143.148438 243.667969 143.09375 C 243.996094 143.070312 244.273438 143.03125 244.46875 143.011719 C 244.660156 142.988281 244.769531 142.972656 244.769531 142.972656 C 244.769531 142.972656 244.660156 142.953125 244.46875 142.929688 C 244.273438 142.914062 243.996094 142.875 243.667969 142.847656 C 243.003906 142.796875 242.121094 142.761719 241.238281 142.761719 C 240.355469 142.765625 239.472656 142.800781 238.8125 142.855469 C 238.480469 142.878906 238.203125 142.917969 238.011719 142.9375 C 237.820312 142.960938 237.707031 142.980469 237.707031 142.980469 " fill-opacity="1" fill-rule="nonzero"/><path fill="rgb(92.158508%, 49.409485%, 38.819885%)" d="M 238.65625 144.105469 C 238.65625 144.105469 238.976562 144.179688 239.460938 144.226562 C 239.945312 144.28125 240.59375 144.316406 241.238281 144.320312 C 241.882812 144.316406 242.53125 144.28125 243.015625 144.226562 C 243.5 144.179688 243.820312 144.105469 243.820312 144.105469 C 243.820312 144.105469 243.5 144.035156 243.015625 143.984375 C 242.53125 143.929688 241.882812 143.894531 241.238281 143.894531 C 240.59375 143.894531 239.945312 143.929688 239.460938 143.984375 C 238.976562 144.035156 238.65625 144.105469 238.65625 144.105469 " fill-opacity="1" fill-rule="nonzero"/><path fill="rgb(20.779419%, 12.159729%, 9.01947%)" d="M 243.820312 147.148438 C 243.824219 147.675781 244.113281 148.105469 244.472656 148.101562 C 244.828125 148.101562 245.121094 147.675781 245.121094 147.148438 C 245.121094 146.621094 244.828125 146.195312 244.472656 146.195312 C 244.113281 146.195312 243.820312 146.625 243.820312 147.148438 " fill-opacity="1" fill-rule="nonzero"/><path fill="rgb(20.779419%, 12.159729%, 9.01947%)" d="M 237.433594 147.148438 C 237.433594 147.675781 237.722656 148.105469 238.082031 148.101562 C 238.441406 148.101562 238.730469 147.675781 238.730469 147.148438 C 238.730469 146.621094 238.441406 146.195312 238.082031 146.195312 C 237.722656 146.195312 237.433594 146.625 237.433594 147.148438 " fill-opacity="1" fill-rule="nonzero"/><path fill="rgb(88.238525%, 82.348633%, 80.778503%)" d="M 248.851562 148.234375 C 249.320312 149.457031 250.789062 149.027344 250.871094 150.03125 C 250.871094 150.03125 251.015625 150.941406 250.976562 154.382812 L 251.050781 156.660156 C 251.050781 156.660156 259.335938 153.285156 258.53125 142.976562 C 258.53125 142.976562 258.484375 136.867188 250.304688 133.832031 C 250.304688 133.832031 233.902344 129.519531 235.507812 145.292969 C 235.507812 145.292969 240.527344 142.179688 242.074219 138.007812 C 242.074219 138.007812 246.25 142.761719 248.15625 143.375 C 250.441406 144.105469 248.175781 146.484375 248.851562 148.234375 " fill-opacity="1" fill-rule="nonzero"/><path fill="rgb(96.859741%, 56.469727%, 43.139648%)" d="M 250.390625 152.09375 C 250.660156 152.300781 251.003906 152.417969 251.4375 152.410156 C 252.609375 152.394531 253.578125 151.304688 253.605469 149.976562 C 253.632812 148.648438 252.710938 147.585938 251.542969 147.601562 C 250.988281 147.609375 250.476562 147.863281 250.09375 148.261719 C 249.53125 148.847656 249.511719 149.929688 249.644531 150.675781 C 249.75 151.269531 249.984375 151.78125 250.390625 152.09375 " fill-opacity="1" fill-rule="nonzero"/><path fill="rgb(92.158508%, 47.44873%, 38.819885%)" d="M 251.070312 148.839844 C 251.136719 148.140625 252.550781 148.808594 252.339844 149.199219 C 252.214844 149.425781 251.964844 149.59375 251.769531 149.75 C 251.503906 149.96875 251.375 150.167969 251.335938 150.511719 L 251.363281 150.703125 C 251.546875 150.828125 252.148438 150.148438 252.277344 150.003906 C 252.539062 149.722656 252.574219 149.238281 252.449219 148.890625 C 252.316406 148.519531 252.070312 148.34375 251.671875 148.367188 C 251.355469 148.386719 251.03125 148.40625 251.050781 148.800781 L 251.070312 148.839844 " fill-opacity="1" fill-rule="nonzero"/><path fill="rgb(92.158508%, 47.44873%, 38.819885%)" d="M 251.519531 149.5625 C 251.375 149.414062 251.234375 149.535156 251.082031 149.644531 C 250.945312 149.746094 250.867188 149.890625 250.828125 150.054688 C 250.75 150.417969 250.796875 150.902344 251.003906 151.21875 C 251.175781 151.472656 251.457031 151.628906 251.765625 151.621094 C 252.191406 151.609375 252.316406 151.234375 252.332031 150.875 C 252.335938 150.777344 252.347656 150.550781 252.25 150.492188 C 252.148438 150.429688 252.078125 150.585938 252.007812 150.652344 C 251.914062 150.742188 251.773438 150.777344 251.648438 150.789062 C 251.40625 150.808594 251.167969 150.6875 251.015625 150.507812 L 250.949219 150.398438 C 250.953125 150.632812 250.964844 150.683594 250.988281 150.554688 C 251.007812 150.496094 251.035156 150.441406 251.066406 150.390625 C 251.167969 150.226562 251.332031 150.113281 251.441406 149.960938 C 251.496094 149.890625 251.59375 149.636719 251.519531 149.5625 " fill-opacity="1" fill-rule="nonzero"/><path fill="rgb(31.369019%, 74.119568%, 73.728943%)" d="M 228.589844 179.054688 C 228.335938 184.496094 229.152344 195.582031 230.675781 197.761719 C 234.019531 202.539062 254.121094 195.597656 254.121094 195.597656 L 260.851562 181.15625 C 259.636719 179.777344 256.738281 177.542969 256.324219 174.730469 C 256.042969 172.792969 255.867188 170.828125 256.011719 168.890625 C 256.140625 167.128906 261.53125 167.15625 262.175781 165.507812 C 257.949219 162.25 251.050781 161.207031 251.050781 161.207031 C 251.050781 161.207031 249.828125 167.636719 242.492188 166.910156 C 242.492188 166.910156 239.933594 165.792969 241.425781 161.128906 C 241.425781 161.128906 228.34375 164.636719 228.589844 179.054688 " fill-opacity="1" fill-rule="nonzero"/><path fill="rgb(100%, 100%, 100%)" d="M 252.183594 161.558594 C 252.8125 161.730469 253.488281 162.101562 253.808594 162.703125 C 254.328125 163.46875 254.164062 164.132812 253.316406 164.695312 C 252.960938 164.765625 252.542969 164.773438 252.21875 164.941406 C 251.574219 165.265625 251.285156 165.855469 251.363281 166.574219 C 251.417969 167.101562 251.714844 168.027344 251.363281 168.492188 C 250.507812 169.617188 249.382812 168.921875 248.429688 168.707031 C 247.277344 168.441406 246.523438 169.359375 245.460938 169.519531 C 244.714844 169.628906 243.9375 169.191406 243.230469 169.023438 C 242.613281 168.875 241.957031 169.039062 241.335938 169.003906 C 240.136719 168.941406 239.113281 168.535156 239.304688 167.214844 C 239.355469 166.863281 239.402344 166.507812 239.304688 166.160156 C 239.074219 165.324219 237.679688 164.882812 238.472656 164 C 239.0625 163.34375 238.648438 162.160156 239.242188 161.582031 L 241.425781 161.128906 C 239.933594 165.792969 242.492188 166.910156 242.492188 166.910156 C 249.828125 167.636719 251.050781 161.207031 251.050781 161.207031 L 252.035156 161.457031 C 252.070312 161.5 252.117188 161.539062 252.183594 161.558594 " fill-opacity="1" fill-rule="nonzero"/><path fill="rgb(31.369019%, 74.119568%, 73.728943%)" d="M 224.90625 221.902344 C 224.90625 221.902344 229.054688 190.226562 229.179688 179.339844 L 263.535156 178.84375 L 265.753906 192.703125 C 265.753906 192.703125 268.964844 206.308594 269.480469 224.027344 C 269.480469 224.027344 238.003906 235.527344 224.90625 221.902344 " fill-opacity="1" fill-rule="nonzero"/><path fill="rgb(96.469116%, 58.428955%, 45.878601%)" d="M 262.792969 168.84375 L 264.371094 167.964844 C 264.371094 167.964844 273.953125 189.273438 273.21875 194.53125 C 272.488281 199.789062 269.964844 196.703125 268.546875 195.597656 C 267.734375 194.96875 253.648438 173.253906 253.648438 173.253906 L 262.792969 168.84375 " fill-opacity="1" fill-rule="nonzero"/><path fill="rgb(31.369019%, 74.119568%, 73.728943%)" d="M 261.40625 165.066406 C 261.40625 165.066406 267.074219 167.59375 270.304688 176.132812 L 274.933594 187.015625 C 274.933594 187.015625 272.152344 190.3125 263.398438 193.042969 L 252.769531 174.457031 C 252.769531 174.457031 252.203125 167.464844 261.40625 165.066406 " fill-opacity="1" fill-rule="nonzero"/><path fill="rgb(96.469116%, 58.428955%, 45.878601%)" d="M 266.621094 192.960938 C 269.390625 206.351562 271.316406 212.539062 273.011719 220.824219 C 273.011719 220.824219 275.921875 222.46875 276.027344 220.171875 C 276.503906 210 276.402344 197.632812 272.820312 190.746094 C 271.800781 188.792969 266.621094 192.960938 266.621094 192.960938 " fill-opacity="1" fill-rule="nonzero"/><g clip-path="url(#clip-0)"><path fill="rgb(96.469116%, 58.428955%, 45.878601%)" d="M 273.074219 220.070312 L 270.425781 222.695312 L 267.890625 225.679688 C 268.867188 226.753906 270.789062 224.882812 270.789062 224.882812 C 270.597656 227.933594 270.207031 231.3125 270.207031 231.3125 C 270.054688 232.421875 271.03125 232.164062 271.03125 232.164062 C 271.925781 230.828125 272.722656 227.226562 272.722656 227.226562 C 272.558594 229.3125 271.792969 232.730469 271.792969 232.730469 C 271.835938 233.664062 272.703125 233.238281 272.703125 233.238281 C 274.378906 231.78125 274.25 227.617188 274.25 227.617188 C 274.347656 229.1875 273.71875 232.566406 273.71875 232.566406 C 274.054688 233.152344 274.316406 232.882812 274.316406 232.882812 C 275.824219 231.929688 275.6875 227.921875 275.6875 227.921875 L 275.699219 229.421875 C 275.535156 231.484375 276.65625 230.75 276.65625 230.75 L 276.914062 229.6875 C 277.640625 226.433594 276.746094 223.792969 276.746094 223.792969 L 276.085938 220.265625 L 273.074219 220.070312 " fill-opacity="1" fill-rule="nonzero"/></g><path fill="rgb(96.469116%, 58.428955%, 45.878601%)" d="M 254.363281 319.015625 L 257.535156 318.925781 L 259.457031 324.132812 C 259.457031 324.132812 259.496094 326.027344 255.519531 326.140625 L 252.140625 326.234375 L 254.363281 319.015625 " fill-opacity="1" fill-rule="nonzero"/><g clip-path="url(#clip-1)"><path fill="rgb(84.709167%, 16.079712%, 18.818665%)" d="M 250.84375 326.476562 L 252.199219 323.617188 L 253.679688 321.230469 L 253.53125 323.761719 C 253.53125 323.761719 253.410156 324.695312 254.308594 324.800781 L 257.21875 324.71875 C 259.40625 324.550781 258.144531 320.457031 258.144531 320.457031 L 259.519531 323.414062 L 260.714844 326.691406 L 260.753906 328.164062 L 250.898438 328.441406 L 250.84375 326.476562 " fill-opacity="1" fill-rule="nonzero"/></g><path fill="rgb(96.469116%, 58.428955%, 45.878601%)" d="M 238.566406 322.128906 L 228.761719 325.957031 C 228.761719 325.957031 227.757812 326.53125 227.734375 327.324219 L 243.34375 326.21875 L 242.644531 322.015625 L 238.566406 322.128906 " fill-opacity="1" fill-rule="nonzero"/><g clip-path="url(#clip-2)"><path fill="rgb(84.709167%, 16.079712%, 18.818665%)" d="M 235.058594 328.09375 C 236.890625 327.996094 237.285156 327.117188 239.121094 327.089844 C 239.589844 327.085938 240.058594 327.132812 240.523438 327.121094 C 240.523438 327.121094 243.621094 327.082031 243.417969 326.214844 L 242.757812 322.492188 L 234.964844 325.390625 C 232.632812 326.085938 231.613281 324.808594 231.613281 324.808594 L 226.695312 326.65625 C 226.695312 326.65625 225.808594 327.183594 225.679688 327.992188 C 225.679688 327.992188 229.664062 328.929688 235.058594 328.09375 " fill-opacity="1" fill-rule="nonzero"/></g><path fill="rgb(96.469116%, 58.428955%, 45.878601%)" d="M 237.855469 314.921875 C 238.007812 317.46875 238.207031 319.582031 238.359375 322.234375 L 242.679688 322.234375 C 242.914062 318.578125 242.863281 317.648438 242.988281 314.96875 L 237.855469 314.921875 " fill-opacity="1" fill-rule="nonzero"/><path fill="rgb(96.859741%, 56.469727%, 43.139648%)" d="M 169.792969 162.632812 L 166.683594 170.3125 C 166.683594 170.3125 183.0625 202.191406 185.796875 203.472656 C 191.332031 206.0625 192.542969 201.304688 191.636719 199.003906 C 191.203125 197.90625 178.453125 163.285156 178.453125 163.285156 L 169.792969 162.632812 " fill-opacity="1" fill-rule="nonzero"/><path fill="rgb(96.859741%, 56.469727%, 43.139648%)" d="M 177.46875 161.640625 C 179.734375 164.683594 179.097656 168.984375 176.042969 171.246094 C 172.988281 173.503906 168.675781 172.871094 166.410156 169.824219 C 164.144531 166.78125 164.78125 162.480469 167.835938 160.21875 C 170.886719 157.960938 175.199219 158.597656 177.46875 161.640625 " fill-opacity="1" fill-rule="nonzero"/><path fill="rgb(96.859741%, 56.469727%, 43.139648%)" d="M 185.917969 198.015625 C 202.203125 175.585938 202.046875 175.453125 203.835938 172.652344 C 203.835938 172.652344 206.351562 171.171875 206.757812 173.460938 C 207.164062 175.746094 194.535156 201.058594 192.523438 202.03125 C 187.195312 204.597656 185.917969 198.015625 185.917969 198.015625 " fill-opacity="1" fill-rule="nonzero"/><g clip-path="url(#clip-3)"><path fill="rgb(96.469116%, 58.428955%, 45.878601%)" d="M 203.875 173.046875 L 202.535156 169.558594 L 201.449219 165.789062 C 202.785156 165.203125 203.773438 167.707031 203.773438 167.707031 C 204.859375 164.832031 205.894531 161.582031 205.894531 161.582031 C 206.214844 160.503906 207.003906 161.140625 207.003906 161.140625 C 207.269531 162.734375 206.511719 166.355469 206.511719 166.355469 C 207.222656 164.378906 207.9375 160.933594 207.9375 160.933594 C 208.359375 160.097656 208.976562 160.84375 208.976562 160.84375 C 209.910156 162.863281 208.070312 166.625 208.070312 166.625 C 208.808594 165.230469 209.628906 161.875 209.628906 161.875 C 210.179688 161.480469 210.308594 161.835938 210.308594 161.835938 C 211.292969 163.324219 209.515625 166.9375 209.515625 166.9375 L 210.144531 165.566406 C 210.84375 163.613281 211.570312 164.742188 211.570312 164.742188 L 211.367188 165.824219 C 210.6875 169.101562 208.777344 171.152344 208.777344 171.152344 L 206.714844 174.105469 L 203.875 173.046875 " fill-opacity="1" fill-rule="nonzero"/></g><path fill="rgb(36.468506%, 5.099487%, 10.978699%)" d="M 206.769531 175.5625 C 191.90625 219.335938 182.984375 201.832031 182.984375 201.832031 C 174.824219 191.332031 165.851562 170.886719 165.851562 170.886719 C 162.019531 163.96875 169.203125 157.304688 169.203125 157.304688 C 176.613281 152.730469 182.277344 167.277344 182.277344 167.277344 L 190.144531 191.019531 C 194.855469 182.902344 196.910156 180.410156 203 173.445312 C 203 173.445312 206.199219 172.660156 206.769531 175.5625 " fill-opacity="1" fill-rule="nonzero"/><path fill="rgb(96.859741%, 56.469727%, 43.139648%)" d="M 161.703125 140.308594 C 161.703125 140.308594 160.976562 155.839844 157.289062 156.453125 L 169.902344 157.640625 C 169.902344 157.640625 168.65625 152.71875 171.46875 149.667969 L 161.703125 140.308594 " fill-opacity="1" fill-rule="nonzero"/><path fill="rgb(88.62915%, 45.489502%, 38.42926%)" d="M 169.679688 154.085938 C 169.929688 152.988281 170.601562 150.609375 171.46875 149.667969 L 161.703125 140.308594 C 161.703125 140.308594 161.480469 145.039062 160.660156 149.386719 C 160.660156 149.386719 161.902344 154.078125 169.679688 154.085938 " fill-opacity="1" fill-rule="nonzero"/><path fill="rgb(96.859741%, 56.469727%, 43.139648%)" d="M 177.289062 160.554688 L 169.636719 155.507812 L 159.847656 152.757812 L 145.28125 155.585938 C 145.28125 155.585938 146.691406 159.582031 160.289062 163.300781 C 160.289062 163.300781 174.507812 166.929688 177.289062 160.554688 " fill-opacity="1" fill-rule="nonzero"/><path fill="rgb(96.859741%, 56.469727%, 43.139648%)" d="M 141.214844 196.03125 C 140.476562 200.695312 138.261719 214.421875 138.261719 214.421875 C 153.746094 221.460938 168.566406 214.261719 168.511719 212.195312 C 168.445312 209.71875 166.601562 203.90625 164.910156 193.878906 C 164.910156 193.878906 158.851562 186.613281 141.214844 196.03125 " fill-opacity="1" fill-rule="nonzero"/><path fill="rgb(96.859741%, 56.469727%, 43.139648%)" d="M 169.605469 314.867188 C 169.605469 314.867188 170.722656 319.09375 172.066406 320.230469 C 173.414062 321.371094 178.535156 323.03125 178.535156 323.03125 L 181.371094 323.421875 C 181.371094 323.421875 183.347656 324.816406 177.953125 326.328125 C 172.5625 327.839844 163.050781 323.425781 163.050781 323.425781 L 165.136719 314.765625 L 169.605469 314.867188 " fill-opacity="1" fill-rule="nonzero"/><path fill="rgb(7.449341%, 7.839966%, 9.408569%)" d="M 164.386719 317.875 L 163.050781 323.425781 C 163.050781 323.425781 172.5625 327.839844 177.953125 326.328125 C 183.347656 324.816406 181.371094 323.421875 181.371094 323.421875 L 178.535156 323.03125 C 178.535156 323.03125 174.332031 321.21875 172.984375 320.078125 C 171.640625 318.941406 170.777344 318.210938 170.777344 318.210938 C 170.777344 318.210938 168.984375 318.21875 168.875 319.003906 C 168.875 319.003906 168.824219 320.097656 167.722656 319.507812 L 164.386719 317.875 " fill-opacity="1" fill-rule="nonzero"/><path fill="rgb(81.959534%, 71.759033%, 65.098572%)" d="M 181.371094 323.421875 C 181.371094 323.421875 183.347656 324.816406 177.953125 326.328125 C 172.5625 327.839844 163.050781 323.425781 163.050781 323.425781 C 163.050781 323.425781 162.925781 324.222656 162.910156 324.652344 C 162.910156 324.652344 173.121094 328.910156 178.121094 327.320312 C 178.121094 327.320312 181.101562 326.664062 181.808594 325.28125 C 182.074219 324.765625 182.113281 323.925781 181.371094 323.421875 " fill-opacity="1" fill-rule="nonzero"/><path fill="rgb(96.859741%, 56.469727%, 43.139648%)" d="M 147.917969 155.109375 C 147.917969 155.109375 167.28125 156.886719 175.757812 160.363281 C 176.390625 160.625 177.445312 162.425781 177.269531 164.332031 C 177.269531 164.332031 176.496094 168.4375 175.953125 170.144531 C 174.847656 173.617188 174.933594 174.007812 172.964844 179.304688 C 170.5 185.933594 170.457031 192.402344 167.621094 198.878906 C 165.269531 204.234375 144.253906 194.402344 144.253906 194.402344 L 142.03125 164.238281 C 142.03125 164.238281 140.710938 155.878906 147.917969 155.109375 " fill-opacity="1" fill-rule="nonzero"/><path fill="rgb(69.799805%, 83.139038%, 93.728638%)" d="M 137.441406 210.039062 C 155.785156 215.5625 170.046875 211.757812 170.046875 211.757812 C 170.976562 205.460938 172.144531 194.1875 172.144531 194.1875 C 173.960938 179.355469 172.941406 185.390625 174.375 179.4375 C 176.191406 171.871094 178.136719 169.820312 178.449219 166.492188 C 178.867188 162.097656 176.914062 160.046875 176.914062 160.046875 L 169.917969 155.6875 L 166.859375 162.160156 L 160.003906 152.773438 L 147.949219 155.078125 C 147.933594 155.074219 147.925781 155.074219 147.925781 155.074219 C 147.472656 155.121094 147.050781 155.203125 146.664062 155.304688 L 145.289062 155.550781 C 145.289062 155.550781 141.53125 154.964844 137.414062 161.945312 C 137.414062 161.945312 131.207031 182.6875 137.441406 210.039062 " fill-opacity="1" fill-rule="nonzero"/><path fill="rgb(46.669006%, 6.669617%, 15.289307%)" d="M 172.933594 157.335938 C 174.707031 165.664062 167.71875 164.863281 167.71875 164.863281 C 156.90625 164.429688 157.332031 153.113281 157.332031 153.113281 L 150.113281 154.660156 L 145.289062 155.550781 C 145.289062 155.550781 140.5 157.007812 138.796875 163.414062 C 138.796875 163.414062 137.753906 171.148438 136.75 176.683594 C 136.75 176.683594 133.617188 190.019531 136.882812 220.289062 C 136.882812 220.289062 160.023438 224.921875 170.164062 221.421875 C 171.226562 193.597656 175.085938 179.222656 175.085938 179.222656 C 182.851562 160.617188 176.070312 159.40625 176.070312 159.40625 L 172.933594 157.335938 " fill-opacity="1" fill-rule="nonzero"/><path fill="rgb(100%, 100%, 100%)" d="M 166.476562 158.101562 L 160.363281 150.941406 L 157.332031 153.113281 L 161 160.914062 L 166.476562 158.101562 " fill-opacity="1" fill-rule="nonzero"/><path fill="rgb(43.919373%, 67.059326%, 79.998779%)" d="M 166.476562 158.101562 L 166.859375 162.15625 L 164.628906 159.101562 L 166.476562 158.101562 " fill-opacity="1" fill-rule="nonzero"/><path fill="rgb(43.919373%, 67.059326%, 79.998779%)" d="M 168.238281 159.238281 L 170.796875 158.351562 L 166.960938 161.816406 L 168.238281 159.238281 " fill-opacity="1" fill-rule="nonzero"/><path fill="rgb(89.019775%, 78.039551%, 70.979309%)" d="M 154.632812 138.613281 C 155.746094 140.679688 153.785156 142.804688 155.941406 144.605469 C 156.316406 144.921875 156.648438 144.941406 156.960938 145.386719 C 157.308594 145.890625 157.175781 146.5625 157.574219 147.089844 C 157.933594 147.566406 158.234375 147.640625 158.773438 147.765625 C 158.9375 147.804688 160.082031 147.921875 160.3125 147.902344 C 161.492188 147.800781 161.015625 146.3125 160.984375 145.144531 C 160.945312 143.691406 160.921875 142.488281 161.347656 141.113281 C 161.78125 139.707031 162 138.484375 161.121094 137.222656 C 160.621094 136.507812 159.910156 136.019531 159.472656 135.253906 C 159.070312 134.554688 158.976562 133.660156 158.378906 133.082031 C 157.367188 132.105469 155.859375 132.425781 154.941406 133.375 C 153.636719 134.726562 153.804688 137.0625 154.632812 138.613281 " fill-opacity="1" fill-rule="nonzero"/><path fill="rgb(96.859741%, 56.469727%, 43.139648%)" d="M 169.648438 143.707031 C 170.214844 144.855469 173.851562 145.207031 172.988281 141.828125 C 172.828125 141.207031 172.492188 140.609375 172.160156 140.070312 " fill-opacity="1" fill-rule="nonzero"/><path fill="rgb(88.62915%, 45.489502%, 38.42926%)" d="M 160.824219 148.449219 C 160.824219 148.449219 160.167969 147.015625 157.988281 143.355469 C 157.988281 143.355469 153.25 138.515625 156.183594 132.71875 C 156.183594 132.71875 157.851562 127.847656 167.0625 128.863281 C 167.0625 128.863281 167.175781 141.964844 160.824219 148.449219 " fill-opacity="1" fill-rule="nonzero"/><path fill="rgb(96.859741%, 56.469727%, 43.139648%)" d="M 164.617188 151.105469 C 166.050781 151.460938 167.472656 151.886719 168.921875 152.183594 C 170.007812 152.410156 172.289062 152.617188 173.226562 151.777344 C 174.09375 151 173.882812 149.945312 174.210938 148.875 C 175.511719 144.636719 175.605469 141.78125 175.417969 137.179688 C 175.324219 134.878906 174.925781 132.878906 173.457031 131.109375 C 170.5625 127.617188 163.167969 127.734375 160.804688 131.847656 C 159.96875 133.300781 159.835938 135.6875 160.105469 137.300781 L 159.53125 146.015625 C 159.53125 146.015625 159.632812 149.878906 164.617188 151.105469 " fill-opacity="1" fill-rule="nonzero"/><path fill="rgb(96.859741%, 56.469727%, 43.139648%)" d="M 162.984375 144.730469 C 163.023438 145.75 163.578125 147.101562 164.851562 146.898438 C 165.558594 146.785156 165.757812 146.15625 166.351562 145.890625 C 167.046875 145.578125 167.785156 145.488281 168.542969 145.539062 C 169.457031 145.601562 170.355469 145.78125 171.269531 145.839844 C 172.023438 145.890625 172.875 145.804688 173.609375 146.011719 C 174.09375 146.144531 174.476562 146.335938 174.792969 146.726562 C 175.183594 145.050781 175.382812 143.53125 175.457031 141.914062 L 163.492188 142.226562 C 163.242188 143.027344 162.953125 143.898438 162.984375 144.730469 " fill-opacity="1" fill-rule="nonzero"/><path fill="rgb(89.019775%, 78.039551%, 70.979309%)" d="M 173.507812 146.425781 C 172.429688 146.242188 171.320312 146.292969 170.234375 146.148438 C 169.101562 145.996094 167.152344 145.566406 166.21875 146.503906 C 165.324219 147.398438 163.878906 147.84375 163.148438 146.601562 C 162.527344 145.546875 161.996094 143.625 162.410156 142.253906 L 159.773438 142.324219 L 159.53125 146.015625 C 159.53125 146.015625 159.632812 149.875 164.617188 151.105469 C 166.050781 151.457031 167.476562 151.882812 168.921875 152.183594 C 170.011719 152.410156 172.289062 152.617188 173.226562 151.773438 C 174.09375 151 173.882812 149.941406 174.210938 148.875 C 174.386719 148.304688 174.765625 146.789062 174.902344 146.257812 C 174.597656 145.886719 174.027344 146.511719 173.507812 146.425781 " fill-opacity="1" fill-rule="nonzero"/><path fill="rgb(88.62915%, 45.489502%, 38.42926%)" d="M 169.648438 143.707031 C 175.851562 144.472656 171.355469 139.773438 171.355469 139.773438 C 171.355469 139.773438 174.332031 143.292969 169.648438 143.707031 " fill-opacity="1" fill-rule="nonzero"/><g clip-path="url(#clip-4)"><path fill="rgb(89.019775%, 78.039551%, 70.979309%)" d="M 155.621094 139.757812 C 156.554688 142.21875 156.367188 142.046875 157.980469 144.515625 C 159.246094 146.449219 158.96875 146.320312 160.65625 148.195312 C 161.445312 144.949219 161.074219 145.378906 161.632812 143.894531 C 162.199219 142.375 162.925781 142.464844 162.890625 137.992188 C 162.878906 136.636719 164.246094 135.117188 165.628906 134.40625 C 166.585938 133.914062 166.777344 133.117188 167.882812 133.046875 C 169.144531 132.964844 170.53125 133.382812 171.746094 133.039062 C 172.960938 132.691406 172.996094 132.386719 174.207031 132.796875 C 175.105469 133.105469 174.53125 134.660156 175.429688 133.925781 C 175.890625 133.546875 177.152344 131.914062 177.332031 131.316406 C 177.683594 130.148438 177.507812 129.320312 176.558594 128.339844 C 175.480469 127.222656 176.027344 128.335938 174.902344 128.027344 C 173.886719 127.75 173.15625 126.453125 172.117188 126.078125 C 170.96875 125.664062 169.898438 125.914062 168.824219 126.253906 C 167.453125 126.6875 166.949219 126.828125 165.515625 126.707031 C 162.609375 126.46875 158.847656 127.949219 156.949219 130.152344 C 154.792969 132.652344 154.457031 136.675781 155.621094 139.757812 " fill-opacity="1" fill-rule="nonzero"/></g><path fill="rgb(20.779419%, 12.159729%, 9.01947%)" d="M 168.625 139.753906 C 168.605469 140.28125 168.300781 140.699219 167.941406 140.6875 C 167.582031 140.675781 167.304688 140.238281 167.320312 139.707031 C 167.339844 139.179688 167.644531 138.761719 168.003906 138.773438 C 168.363281 138.785156 168.640625 139.222656 168.625 139.753906 " fill-opacity="1" fill-rule="nonzero"/><path fill="rgb(20.779419%, 12.159729%, 9.01947%)" d="M 174.566406 139.859375 C 174.546875 140.390625 174.242188 140.808594 173.882812 140.796875 C 173.523438 140.785156 173.246094 140.347656 173.261719 139.820312 C 173.277344 139.289062 173.585938 138.871094 173.945312 138.882812 C 174.304688 138.894531 174.582031 139.332031 174.566406 139.859375 " fill-opacity="1" fill-rule="nonzero"/><path fill="rgb(61.569214%, 19.999695%, 22.349548%)" d="M 173.191406 145.535156 L 168.664062 145.386719 C 168.425781 145.382812 168.304688 145.558594 168.398438 145.777344 C 168.398438 145.777344 169.351562 148.050781 170.820312 148.09375 C 172.285156 148.136719 173.371094 145.921875 173.371094 145.921875 C 173.464844 145.730469 173.378906 145.574219 173.191406 145.535156 " fill-opacity="1" fill-rule="nonzero"/><path fill="rgb(83.529663%, 27.449036%, 31.759644%)" d="M 169.148438 147.039062 C 169.566406 147.570312 170.136719 148.074219 170.820312 148.09375 C 171.503906 148.113281 172.105469 147.640625 172.550781 147.128906 C 171.703125 146.140625 170.113281 146.117188 169.148438 147.039062 " fill-opacity="1" fill-rule="nonzero"/><path fill="rgb(96.859741%, 56.469727%, 43.139648%)" d="M 162.027344 144.558594 C 161.710938 144.847656 161.296875 145.03125 160.753906 145.070312 C 159.292969 145.175781 157.964844 143.921875 157.785156 142.269531 C 157.605469 140.617188 158.640625 139.191406 160.101562 139.089844 C 160.792969 139.039062 161.457031 139.292969 161.980469 139.753906 C 162.746094 140.421875 162.886719 141.769531 162.800781 142.710938 C 162.734375 143.464844 162.496094 144.128906 162.027344 144.558594 " fill-opacity="1" fill-rule="nonzero"/><path fill="rgb(88.62915%, 45.489502%, 38.42926%)" d="M 160.824219 140.578125 C 160.660156 139.714844 158.972656 140.699219 159.28125 141.164062 C 159.460938 141.433594 159.789062 141.613281 160.046875 141.789062 C 160.402344 142.03125 160.589844 142.265625 160.671875 142.691406 C 160.683594 142.742188 160.707031 142.894531 160.660156 142.933594 C 160.441406 143.109375 159.621094 142.324219 159.441406 142.164062 C 159.089844 141.835938 158.992188 141.238281 159.109375 140.789062 C 159.234375 140.3125 159.519531 140.066406 160.019531 140.054688 C 160.417969 140.042969 160.824219 140.035156 160.839844 140.527344 C 160.839844 140.539062 160.832031 140.621094 160.824219 140.578125 " fill-opacity="1" fill-rule="nonzero"/><path fill="rgb(88.62915%, 45.489502%, 38.42926%)" d="M 160.339844 141.527344 C 160.507812 141.328125 160.695312 141.464844 160.894531 141.585938 C 161.078125 141.695312 161.191406 141.867188 161.253906 142.066406 C 161.394531 142.511719 161.386719 143.121094 161.164062 143.539062 C 160.980469 143.871094 160.644531 144.097656 160.261719 144.121094 C 159.726562 144.152344 159.527344 143.699219 159.472656 143.253906 C 159.453125 143.132812 159.417969 142.851562 159.53125 142.765625 C 159.652344 142.675781 159.757812 142.863281 159.851562 142.941406 C 159.976562 143.042969 160.15625 143.070312 160.316406 143.070312 C 160.621094 143.070312 160.902344 142.890625 161.074219 142.652344 C 161.101562 142.605469 161.128906 142.558594 161.140625 142.507812 C 161.167969 142.800781 161.15625 142.867188 161.113281 142.707031 C 161.082031 142.636719 161.042969 142.570312 160.992188 142.511719 C 160.851562 142.320312 160.632812 142.199219 160.480469 142.015625 C 160.40625 141.933594 160.253906 141.628906 160.339844 141.527344 " fill-opacity="1" fill-rule="nonzero"/><path fill="rgb(81.959534%, 71.759033%, 65.098572%)" d="M 166.8125 137.9375 C 167.167969 137.910156 167.574219 137.882812 167.945312 137.886719 C 168.296875 137.886719 168.675781 137.894531 169.003906 138.003906 C 169.226562 138.078125 169.476562 138.722656 169.0625 138.738281 C 168.628906 138.753906 168.460938 138.710938 168.019531 138.707031 C 167.171875 138.691406 167.148438 138.664062 166.679688 138.660156 C 166.476562 138.660156 165.960938 138.761719 165.601562 138.679688 C 165.449219 138.644531 165.738281 138.398438 165.796875 138.328125 C 166.058594 138.03125 166.421875 137.964844 166.8125 137.9375 " fill-opacity="1" fill-rule="nonzero"/><path fill="rgb(81.959534%, 71.759033%, 65.098572%)" d="M 175.476562 138.617188 C 175.46875 138.609375 175.480469 138.625 175.476562 138.617188 C 175.230469 138.304688 174.871094 138.222656 174.480469 138.171875 C 174.125 138.128906 173.722656 138.078125 173.351562 138.0625 C 173.003906 138.046875 172.625 138.03125 172.289062 138.125 C 172.066406 138.1875 171.78125 138.816406 172.195312 138.855469 C 172.625 138.894531 172.796875 138.863281 173.238281 138.875 C 174.082031 138.90625 174.109375 138.878906 174.574219 138.902344 C 174.746094 138.910156 175.472656 138.992188 175.472656 138.992188 C 175.472656 138.992188 175.542969 138.773438 175.476562 138.617188 " fill-opacity="1" fill-rule="nonzero"/><path fill="rgb(88.62915%, 45.489502%, 38.42926%)" d="M 167.066406 134.597656 C 167.066406 134.597656 167.179688 134.582031 167.375 134.566406 C 167.566406 134.554688 167.847656 134.523438 168.179688 134.507812 C 168.84375 134.472656 169.730469 134.464844 170.617188 134.484375 C 171.503906 134.511719 172.386719 134.574219 173.050781 134.648438 C 173.382812 134.683594 173.660156 134.726562 173.851562 134.75 C 174.046875 134.78125 174.15625 134.800781 174.15625 134.800781 C 174.15625 134.800781 174.046875 134.816406 173.851562 134.835938 C 173.65625 134.847656 173.378906 134.878906 173.046875 134.890625 C 172.378906 134.925781 171.492188 134.9375 170.605469 134.914062 C 169.71875 134.886719 168.835938 134.824219 168.171875 134.753906 C 167.839844 134.71875 167.566406 134.671875 167.371094 134.648438 C 167.175781 134.621094 167.066406 134.597656 167.066406 134.597656 " fill-opacity="1" fill-rule="nonzero"/><path fill="rgb(88.62915%, 45.489502%, 38.42926%)" d="M 168.382812 135.761719 C 168.382812 135.761719 168.65625 135.707031 169.0625 135.679688 C 169.46875 135.648438 170.011719 135.640625 170.550781 135.671875 C 171.089844 135.699219 171.625 135.765625 172.027344 135.84375 C 172.429688 135.917969 172.691406 136.003906 172.691406 136.003906 C 172.691406 136.003906 172.421875 136.0625 172.011719 136.089844 C 171.605469 136.121094 171.0625 136.125 170.527344 136.097656 C 169.988281 136.066406 169.453125 136 169.050781 135.921875 C 168.648438 135.851562 168.382812 135.761719 168.382812 135.761719 " fill-opacity="1" fill-rule="nonzero"/><path fill="rgb(81.959534%, 71.759033%, 65.098572%)" d="M 174.898438 146.261719 C 174.898438 146.261719 174.390625 143.699219 170.917969 143.695312 C 170.917969 143.695312 167.550781 143.402344 166.800781 146.003906 C 166.800781 146.003906 166.90625 146.332031 168.148438 146.332031 L 169.105469 145.402344 L 169.132812 146.414062 L 170.921875 146.46875 L 171.441406 145.476562 L 171.65625 146.515625 L 173.03125 146.496094 L 173.355469 145.601562 L 173.59375 146.554688 L 174.898438 146.261719 " fill-opacity="1" fill-rule="nonzero"/><path fill="rgb(6.269836%, 7.839966%, 13.328552%)" d="M 167.59375 219.605469 C 167.59375 219.605469 168.289062 224.578125 170.492188 235.519531 C 173.683594 251.367188 174.082031 272.082031 174.082031 272.082031 C 174.082031 272.082031 161.019531 274.710938 160.230469 272.351562 C 152.550781 249.421875 145.855469 226.167969 145.855469 226.167969 L 167.59375 219.605469 " fill-opacity="1" fill-rule="nonzero"/><path fill="rgb(9.01947%, 11.759949%, 19.60907%)" d="M 136.574219 220.070312 C 136.636719 221.148438 136.726562 222.371094 136.855469 223.769531 C 137.367188 234.355469 154.429688 231.667969 154.429688 231.667969 C 166.898438 232.484375 169.378906 221.78125 169.378906 221.78125 C 169.589844 221.160156 169.769531 220.59375 169.925781 220.070312 L 136.574219 220.070312 " fill-opacity="1" fill-rule="nonzero"/><path fill="rgb(9.01947%, 11.759949%, 19.60907%)" d="M 156.628906 220.925781 L 137.722656 220.925781 C 137.113281 224.054688 136.894531 229.363281 140.476562 234.5625 C 146.050781 242.652344 159.53125 237.636719 158.234375 226.371094 C 157.992188 224.261719 157.429688 222.445312 156.628906 220.925781 " fill-opacity="1" fill-rule="nonzero"/><path fill="rgb(9.01947%, 11.759949%, 19.60907%)" d="M 149.351562 154.808594 C 149.351562 154.808594 152.375 156.796875 149.34375 190.308594 L 146.101562 219.332031 L 149.699219 219.902344 L 153.164062 188.644531 C 153.164062 188.644531 156.632812 160.5 153.046875 154.078125 L 149.351562 154.808594 " fill-opacity="1" fill-rule="nonzero"/><path fill="rgb(65.489197%, 64.709473%, 65.098572%)" d="M 150.582031 220.027344 L 145.210938 219.523438 L 145.40625 217.464844 L 150.777344 217.972656 L 150.582031 220.027344 " fill-opacity="1" fill-rule="nonzero"/><path fill="rgb(65.489197%, 64.709473%, 65.098572%)" d="M 149.628906 221.441406 L 145.886719 221.085938 L 146.03125 219.554688 L 149.773438 219.910156 L 149.628906 221.441406 " fill-opacity="1" fill-rule="nonzero"/><path fill="rgb(9.01947%, 11.759949%, 19.60907%)" d="M 172.800781 157.230469 C 172.800781 157.230469 174.300781 164.089844 170.171875 190.386719 L 166.070312 221.21875 L 169.671875 221.789062 L 174.070312 189.757812 C 174.070312 189.757812 177.964844 166.53125 175.855469 159.386719 C 175.855469 159.386719 175.550781 158.082031 172.800781 157.230469 " fill-opacity="1" fill-rule="nonzero"/><path fill="rgb(65.489197%, 64.709473%, 65.098572%)" d="M 170.554688 221.914062 L 165.183594 221.40625 L 165.378906 219.351562 L 170.75 219.859375 L 170.554688 221.914062 " fill-opacity="1" fill-rule="nonzero"/><path fill="rgb(65.489197%, 64.709473%, 65.098572%)" d="M 169.601562 223.324219 L 165.859375 222.972656 L 166.003906 221.445312 L 169.746094 221.796875 L 169.601562 223.324219 " fill-opacity="1" fill-rule="nonzero"/><path fill="rgb(100%, 100%, 100%)" d="M 172.085938 155.875 L 169.679688 154.085938 L 168.242188 159.238281 L 172.085938 155.875 " fill-opacity="1" fill-rule="nonzero"/><path fill="rgb(100%, 100%, 100%)" d="M 172.082031 155.878906 L 173.417969 161.722656 L 171.679688 158.023438 L 168.238281 159.238281 L 172.082031 155.878906 " fill-opacity="1" fill-rule="nonzero"/><path fill="rgb(6.269836%, 7.839966%, 13.328552%)" d="M 174.152344 270.125 C 174.152344 270.125 176.292969 288.546875 174.082031 318.335938 C 174.082031 318.335938 163.074219 318.957031 163.050781 317.800781 C 162.71875 300.378906 159.96875 271.570312 159.96875 271.570312 C 159.96875 271.570312 172.621094 258.25 174.152344 270.125 " fill-opacity="1" fill-rule="nonzero"/><path fill="rgb(96.859741%, 56.469727%, 43.139648%)" d="M 138.171875 314.414062 C 138.171875 314.414062 138.289062 318.78125 139.339844 320.199219 C 140.386719 321.613281 144.996094 324.394531 144.996094 324.394531 L 147.664062 325.421875 C 147.664062 325.421875 149.269531 327.230469 143.671875 327.472656 C 138.074219 327.714844 129.828125 321.25 129.828125 321.25 L 133.847656 313.296875 L 138.171875 314.414062 " fill-opacity="1" fill-rule="nonzero"/><path fill="rgb(7.449341%, 7.839966%, 9.408569%)" d="M 132.402344 316.152344 L 129.828125 321.25 C 129.828125 321.25 138.074219 327.714844 143.671875 327.472656 C 149.269531 327.230469 147.664062 325.421875 147.664062 325.421875 L 144.996094 324.394531 C 144.996094 324.394531 141.316406 321.671875 140.269531 320.257812 C 139.21875 318.84375 138.546875 317.9375 138.546875 317.9375 C 138.546875 317.9375 136.796875 317.535156 136.511719 318.273438 C 136.511719 318.273438 136.210938 319.328125 135.277344 318.503906 L 132.402344 316.152344 " fill-opacity="1" fill-rule="nonzero"/><g clip-path="url(#clip-5)"><path fill="rgb(81.959534%, 71.759033%, 65.098572%)" d="M 147.664062 325.421875 C 147.664062 325.421875 149.269531 327.230469 143.671875 327.472656 C 138.074219 327.714844 129.828125 321.25 129.828125 321.25 C 129.828125 321.25 129.523438 322 129.410156 322.414062 C 129.410156 322.414062 138.375 328.886719 143.605469 328.476562 C 143.605469 328.476562 146.660156 328.515625 147.664062 327.332031 C 148.042969 326.890625 148.273438 326.082031 147.664062 325.421875 " fill-opacity="1" fill-rule="nonzero"/></g><path fill="rgb(9.01947%, 11.759949%, 19.60907%)" d="M 158.046875 221.214844 C 158.046875 221.214844 157.582031 226.210938 157.222656 237.367188 C 156.699219 253.523438 152.335938 273.777344 152.335938 273.777344 C 152.335938 273.777344 139.015625 273.363281 138.789062 270.886719 C 136.570312 246.8125 138.261719 222.953125 138.261719 222.953125 L 158.046875 221.214844 " fill-opacity="1" fill-rule="nonzero"/><path fill="rgb(9.01947%, 11.759949%, 19.60907%)" d="M 152.851562 271.890625 C 152.851562 271.890625 150.714844 290.3125 141.734375 318.808594 C 141.734375 318.808594 130.875 316.90625 131.117188 315.773438 C 134.785156 298.738281 138.714844 270.0625 138.714844 270.0625 C 138.714844 270.0625 154.082031 259.980469 152.851562 271.890625 " fill-opacity="1" fill-rule="nonzero"/><path fill="rgb(96.859741%, 56.469727%, 43.139648%)" d="M 144.675781 159.128906 L 136.992188 162.28125 C 136.992188 162.28125 125.5625 196.234375 126.550781 199.078125 C 128.5625 204.835938 132.824219 202.375 133.839844 200.121094 C 134.324219 199.046875 150.257812 165.761719 150.257812 165.761719 L 144.675781 159.128906 " fill-opacity="1" fill-rule="nonzero"/><path fill="rgb(96.859741%, 56.469727%, 43.139648%)" d="M 150.75 163.910156 C 150.148438 167.652344 146.617188 170.203125 142.863281 169.605469 C 139.105469 169.007812 136.550781 165.484375 137.148438 161.738281 C 137.75 157.996094 141.28125 155.445312 145.035156 156.046875 C 148.792969 156.644531 151.347656 160.164062 150.75 163.910156 " fill-opacity="1" fill-rule="nonzero"/><path fill="rgb(96.859741%, 56.469727%, 43.139648%)" d="M 134.59375 198.273438 C 132.730469 225.898438 132.9375 225.929688 132.910156 229.25 C 132.910156 229.25 131.5625 231.835938 130.003906 230.109375 C 128.441406 228.390625 125.671875 200.25 126.859375 198.363281 C 130.003906 193.367188 134.59375 198.273438 134.59375 198.273438 " fill-opacity="1" fill-rule="nonzero"/><path fill="rgb(96.469116%, 58.428955%, 45.878601%)" d="M 132.664062 228.933594 L 135.660156 231.183594 L 138.585938 233.804688 C 137.761719 235.007812 135.59375 233.40625 135.59375 233.40625 C 136.203125 236.414062 137.058594 239.722656 137.058594 239.722656 C 137.359375 240.804688 136.351562 240.679688 136.351562 240.679688 C 135.277344 239.472656 133.992188 236.003906 133.992188 236.003906 C 134.441406 238.054688 135.667969 241.351562 135.667969 241.351562 C 135.757812 242.285156 134.835938 241.976562 134.835938 241.976562 C 132.972656 240.757812 132.527344 236.597656 132.527344 236.597656 C 132.644531 238.175781 133.734375 241.449219 133.734375 241.449219 C 133.480469 242.074219 133.179688 241.84375 133.179688 241.84375 C 131.550781 241.101562 131.136719 237.097656 131.136719 237.097656 L 131.332031 238.59375 C 131.78125 240.617188 130.5625 240.042969 130.5625 240.042969 L 130.160156 239.023438 C 128.992188 235.882812 129.519531 233.132812 129.519531 233.132812 L 129.695312 229.539062 L 132.664062 228.933594 " fill-opacity="1" fill-rule="nonzero"/><g clip-path="url(#clip-6)"><path fill="rgb(44.709778%, 6.269836%, 14.118958%)" d="M 125.761719 195.925781 C 125.761719 195.925781 125.367188 208.652344 127.976562 227.128906 C 127.976562 227.128906 129.925781 229.804688 132.878906 228.621094 C 132.878906 228.621094 136.898438 212.914062 136.101562 198.140625 L 150.0625 171.277344 C 150.0625 171.277344 156.542969 157.074219 148.082031 154.984375 C 148.082031 154.984375 138.285156 154.519531 135.996094 162.085938 C 135.996094 162.085938 127.597656 182.773438 125.761719 195.925781 " fill-opacity="1" fill-rule="nonzero"/></g><path fill="rgb(74.119568%, 82.348633%, 71.369934%)" d="M 312.015625 54.015625 C 295.652344 54.015625 282.390625 67.277344 282.390625 83.640625 C 282.390625 100 295.652344 113.265625 312.015625 113.265625 C 328.375 113.265625 341.640625 100 341.640625 83.640625 C 341.640625 67.277344 328.375 54.015625 312.015625 54.015625 Z M 312.015625 54.015625 " fill-opacity="1" fill-rule="nonzero"/><path fill="rgb(74.119568%, 82.348633%, 71.369934%)" d="M 110.589844 247.3125 C 100.027344 247.3125 91.464844 255.875 91.464844 266.4375 C 91.464844 277 100.027344 285.5625 110.589844 285.5625 C 121.152344 285.5625 129.714844 277 129.714844 266.4375 C 129.714844 255.875 121.152344 247.3125 110.589844 247.3125 Z M 110.589844 247.3125 " fill-opacity="1" fill-rule="nonzero"/></svg>