<?xml version="1.0" standalone="no"?>
<!DOCTYPE svg PUBLIC "-//W3C//DTD SVG 20010904//EN"
 "http://www.w3.org/TR/2001/REC-SVG-20010904/DTD/svg10.dtd">
<svg version="1.0" xmlns="http://www.w3.org/2000/svg"
 width="498.000000pt" height="398.000000pt" viewBox="0 0 498.000000 398.000000"
 preserveAspectRatio="xMidYMid meet">
<metadata>
Created by potrace 1.16, written by Peter Selinger 2001-2019
</metadata>
<g transform="translate(0.000000,398.000000) scale(0.100000,-0.100000)"
fill="#000000" stroke="none">
<path d="M2592 3679 c-23 -4 -46 -10 -51 -14 -5 -3 -19 -1 -31 3 -93 35 -400
-91 -500 -205 -23 -26 -64 -91 -91 -144 -29 -57 -57 -99 -68 -102 -14 -3 -18
-16 -20 -59 -1 -39 3 -57 12 -61 11 -4 13 -39 12 -160 -1 -137 1 -158 16 -171
10 -8 21 -32 24 -53 11 -62 18 -71 25 -33 l7 35 11 -25 c10 -22 11 -16 10 40
0 77 34 254 62 317 11 25 18 49 15 53 -2 4 8 18 23 31 25 22 25 22 8 2 -11
-13 -15 -23 -9 -23 5 0 15 10 22 23 19 31 148 143 201 174 33 18 63 26 114 29
38 2 72 7 75 12 3 5 17 12 31 16 20 6 22 5 10 -4 -12 -9 -10 -10 10 -4 13 4
51 8 83 9 54 2 60 1 90 -32 18 -18 31 -42 29 -52 -1 -10 13 -53 33 -96 39 -86
40 -89 23 -79 -7 4 -8 3 -4 -5 4 -6 12 -8 18 -5 7 5 9 1 5 -9 -4 -10 -2 -16 5
-14 6 1 13 -4 16 -12 3 -9 0 -11 -8 -6 -9 5 -11 4 -6 -4 4 -6 10 -9 14 -7 4 2
20 -14 37 -35 16 -22 31 -36 33 -31 3 10 82 -66 82 -79 0 -5 6 -9 14 -9 8 0
16 -7 20 -15 10 -27 -7 -16 -62 38 -29 28 -52 45 -50 37 2 -8 17 -29 33 -45
36 -37 102 -85 91 -66 -5 8 -3 16 4 21 13 8 68 -4 82 -18 4 -4 13 -43 19 -87
8 -49 19 -88 30 -100 17 -19 51 -163 50 -212 0 -11 6 -23 13 -26 16 -6 30 19
19 35 -3 7 -1 8 5 4 7 -4 12 -1 12 6 0 7 18 49 40 92 45 90 52 143 21 182 -11
13 -21 21 -23 17 -1 -5 -19 -17 -38 -28 l-35 -19 17 26 c13 19 14 28 5 31 -9
3 -8 20 3 73 9 40 14 117 14 184 l-2 115 29 -1 c31 -1 63 -34 100 -107 75
-144 130 -509 95 -626 -20 -69 -21 -95 -1 -61 l15 25 -6 -30 c-4 -16 -16 -43
-29 -60 -35 -49 -41 -62 -17 -41 12 11 22 14 22 8 0 -6 -10 -18 -21 -26 -24
-16 -52 -10 -100 25 -22 16 -27 17 -23 5 3 -9 9 -16 14 -16 12 0 55 -42 53
-51 -2 -5 8 -11 22 -15 14 -3 25 -10 25 -14 0 -11 -22 -27 -45 -32 -18 -4 -17
-6 8 -16 15 -6 27 -15 27 -19 0 -5 14 -16 31 -25 17 -10 27 -22 24 -28 -4 -6
7 -10 27 -10 28 0 36 -6 56 -40 13 -22 20 -45 17 -50 -4 -6 -1 -27 6 -48 15
-43 35 -69 26 -34 -3 12 -1 22 4 22 5 0 9 -5 9 -10 0 -6 6 -9 13 -8 44 9 56
110 45 369 -6 135 -5 190 3 206 9 17 9 56 1 161 -19 239 -72 419 -153 514 -43
51 -43 58 -4 32 14 -9 25 -13 25 -10 0 14 -112 77 -157 87 -26 7 -61 17 -78
23 -16 6 -33 10 -37 8 -13 -4 -58 17 -58 27 0 6 8 7 17 4 12 -5 6 7 -15 32
-21 26 -32 50 -32 71 0 25 -11 41 -58 85 -104 97 -234 197 -265 203 -134 28
-184 31 -265 15z m278 -401 c0 -5 0 -11 -1 -14 0 -4 4 -10 10 -13 6 -4 19 -34
30 -66 31 -97 56 -158 80 -197 25 -42 36 -49 28 -18 -3 11 -2 20 3 20 13 0 30
-26 22 -34 -4 -4 1 -13 10 -20 9 -7 20 -25 24 -40 l6 -27 -37 16 c-42 17 -55
26 -102 70 -36 34 -87 121 -78 135 3 5 -1 24 -9 42 -20 49 -36 102 -36 122 0
15 5 17 28 11 l27 -7 -25 28 c-23 25 -24 26 -2 13 12 -8 22 -17 22 -21z"/>
<path d="M1773 3170 c-11 -31 -12 -32 -9 -6 l4 28 -67 -6 c-90 -9 -156 -29
-156 -49 0 -8 -22 -34 -48 -57 -26 -23 -45 -45 -42 -48 3 -3 18 6 33 20 15 14
41 34 57 44 28 17 27 15 -13 -33 -61 -73 -121 -234 -147 -396 -22 -130 -31
-323 -17 -340 7 -8 11 -40 11 -73 -1 -34 7 -84 18 -119 l20 -60 -1 42 c-1 24
-4 43 -8 43 -4 0 -5 6 -3 13 3 6 1 43 -3 82 -9 66 -2 130 10 110 3 -6 18 -52
32 -104 15 -52 36 -111 46 -130 34 -67 125 -131 185 -131 29 0 33 16 6 25 -10
3 -26 14 -36 25 -18 19 -17 20 8 20 15 0 27 5 27 10 0 6 -7 10 -16 10 -11 0
-14 5 -10 16 3 9 6 18 6 20 0 2 10 4 21 4 18 0 19 2 9 15 -18 22 -26 19 -61
-20 -30 -33 -33 -34 -51 -19 -10 10 -18 26 -18 37 0 19 1 19 19 3 19 -17 19
-17 14 2 -4 17 -1 20 19 16 22 -5 22 -4 -3 10 -15 9 -29 22 -32 30 -5 12 -1
13 20 5 30 -11 46 -2 21 12 -10 5 -29 29 -43 53 -21 36 -26 59 -29 134 -2 50
0 108 5 129 5 21 18 96 29 167 23 145 31 181 67 283 22 64 31 77 71 103 30 20
52 28 67 24 26 -6 43 12 26 29 -8 8 -11 7 -12 -3 -1 -8 -5 3 -8 25 l-6 40 -12
-35z"/>
<path d="M2860 2804 c0 -3 16 -12 36 -20 20 -8 34 -17 32 -20 -3 -2 -22 3 -43
12 -21 9 -51 14 -67 12 -15 -3 -28 -1 -28 3 0 4 -8 5 -19 2 -21 -5 -65 -60
-53 -66 9 -6 51 -9 100 -8 20 1 76 2 125 4 48 1 87 5 87 8 0 4 -21 10 -47 15
l-48 8 35 7 c28 5 30 7 10 8 -15 0 -30 5 -35 10 -11 10 -85 32 -85 25z"/>
<path d="M2263 2449 c-7 -7 -8 -21 -3 -38 5 -14 11 -70 14 -123 6 -105 23
-191 37 -182 5 3 17 -8 26 -24 l18 -29 0 82 c0 92 10 113 52 110 19 -2 20 -1
6 2 -13 2 -23 11 -23 19 0 16 16 19 25 4 4 -6 13 -7 23 -1 16 9 60 6 92 -6 8
-3 27 -5 43 -4 15 2 27 -2 27 -8 0 -12 -36 -24 -49 -17 -5 3 -20 1 -33 -4 -22
-10 -22 -10 5 -7 18 3 27 0 27 -9 0 -17 40 -18 129 -3 77 12 119 32 130 62 12
31 -5 50 -32 36 -11 -7 -46 -11 -76 -9 -31 1 -128 3 -216 3 l-159 2 -13 44
c-7 24 -17 49 -24 57 -6 7 -8 22 -4 34 7 22 -4 27 -22 9z"/>
<path d="M3060 2072 c0 -7 -5 -12 -10 -12 -6 0 -32 -22 -59 -50 -28 -29 -57
-50 -70 -50 -20 0 -25 -11 -24 -47 1 -7 -5 -13 -12 -13 -8 0 -20 -14 -29 -31
-13 -26 -13 -31 -1 -36 8 -3 12 -9 9 -14 -3 -5 6 -9 20 -9 14 0 27 -4 30 -9 7
-10 56 -2 56 10 0 5 5 9 10 9 17 0 49 38 56 65 3 14 10 25 14 25 5 0 10 8 13
18 5 19 8 -15 10 -93 2 -63 -8 -116 -24 -125 -6 -5 -9 -17 -6 -28 2 -12 1 -22
-4 -24 -9 -3 62 -218 99 -301 12 -27 35 -68 52 -93 16 -25 30 -47 30 -49 0 -3
15 -26 34 -52 19 -27 53 -86 77 -133 40 -81 42 -90 47 -193 3 -74 1 -107 -7
-107 -6 0 -11 10 -11 23 0 29 -15 53 -24 38 -4 -6 -3 -11 3 -11 13 0 -22 -61
-49 -85 -11 -10 -20 -26 -20 -35 0 -10 -7 -23 -15 -30 -9 -7 -14 -15 -11 -17
2 -3 -7 -21 -20 -40 -13 -20 -24 -41 -24 -48 0 -7 -16 -23 -35 -36 -19 -13
-35 -27 -35 -31 0 -5 -7 -8 -16 -8 -8 0 -13 -4 -10 -9 8 -12 -86 -24 -124 -16
-44 10 -86 66 -136 183 -106 248 -151 507 -173 987 -5 94 -13 180 -20 192 -20
38 -12 74 35 160 50 91 54 118 9 52 -16 -22 -41 -47 -56 -55 -41 -20 -135 -17
-188 6 -39 18 -42 18 -30 3 7 -10 24 -27 36 -38 29 -25 43 -93 22 -106 -11 -7
-12 -11 -1 -17 7 -5 12 -15 10 -23 -2 -7 6 -15 18 -17 17 -2 23 -13 28 -43 7
-46 -10 -297 -24 -349 -6 -19 -10 -53 -10 -74 0 -45 -29 -196 -40 -211 -4 -5
-11 -28 -15 -50 -4 -22 -18 -64 -32 -93 -14 -29 -26 -58 -27 -65 -1 -7 -9 -27
-19 -46 -9 -18 -14 -37 -12 -42 3 -4 1 -10 -5 -14 -5 -3 -10 -14 -10 -24 0
-10 -7 -24 -15 -31 -9 -7 -13 -20 -10 -27 6 -17 -30 -66 -51 -69 -19 -3 -82
-56 -83 -70 -1 -6 -12 -20 -26 -30 -14 -10 -25 -24 -25 -31 0 -15 -61 -27 -90
-18 -21 7 -21 6 -5 -18 22 -35 80 -41 273 -29 84 5 172 6 195 1 23 -4 45 -5
49 -3 4 3 36 0 70 -5 86 -14 498 -22 563 -11 29 5 72 14 95 20 l43 12 -6 73
c-6 72 -6 74 24 103 17 17 28 35 24 41 -3 7 -1 10 5 9 7 -2 22 15 34 38 19 33
22 52 18 105 -2 35 -8 69 -12 74 -4 6 -11 25 -15 44 -9 42 -93 207 -134 262
-34 47 -41 69 -14 48 15 -13 16 -12 7 6 -13 29 -7 177 8 187 10 6 10 8 1 8
-10 0 -10 6 -1 25 17 37 138 73 194 56 28 -8 33 -6 43 16 18 39 24 20 12 -37
-6 -28 -11 -74 -11 -101 0 -48 1 -50 23 -43 47 14 77 35 127 91 50 56 95 136
85 153 -10 17 -81 16 -144 -3 -250 -72 -398 -111 -389 -102 3 4 2 20 -2 36 -7
22 -5 29 6 29 8 0 14 7 14 15 0 9 7 18 15 21 20 8 19 24 -2 24 -15 0 -14 2 3
15 19 14 19 14 -1 15 -17 0 -17 2 -5 10 8 5 15 13 16 17 2 23 20 44 57 70 53
36 93 73 79 73 -6 0 -17 -6 -24 -12 -7 -7 -29 -21 -48 -30 -19 -9 -55 -29 -80
-44 -43 -26 -44 -26 -25 -4 16 19 17 22 4 17 -21 -7 -39 11 -39 38 0 26 47
101 89 139 17 17 31 36 31 43 0 18 -35 16 -50 -2 -19 -22 -100 -167 -100 -177
0 -5 -4 -7 -9 -3 -11 6 -9 95 2 112 4 6 2 13 -3 15 -14 4 -31 78 -18 78 5 0 6
4 3 10 -9 15 -34 -12 -27 -30 4 -12 2 -13 -8 -3 -11 10 -11 17 -1 37 11 19 11
28 0 47 -7 13 -11 26 -10 27 2 2 0 6 -3 10 -3 3 -6 0 -6 -6z"/>
<path d="M1452 1520 c-50 -12 -55 -22 -30 -60 33 -47 53 -58 79 -42 15 10 24
11 32 3 6 -6 26 -11 44 -11 30 0 33 3 33 31 0 42 16 69 43 70 17 1 16 3 -8 9
-39 10 -151 10 -193 0z"/>
</g>
</svg>
